# xmcd
#
# Track frame offsets:
#	150
#	10097
#	28839
#	48587
#	65884
#	80230
#	95002
#	110779
#	127032
#	146759
#	173235
#	192328
#
# Disc length: 2751 seconds
#
# Revision: 0
# Processed by: cddbd v1.5.1PL0 Copyright (c) Steve Scherf et al.
# Submitted via: dBpowerAMP V4.0
#
DISCID=ba0abd0c
DTITLE=Mercedes Sosa - Mercedes Sosa canta V?ctor Heredia
DYEAR=2002
DGENRE=
TTITLE0=Aya Marcay Quilla
TTITLE1=Sube, sube, sube
TTITLE2=Una canci?n posible
TTITLE3=Raz?n de vivir
TTITLE4=Todav?a cantamos
TTITLE5=Dulce madera cantora
TTITLE6=Canci?n del picapedrero
TTITLE7=Un pedazo de mi sangre
TTITLE8=Azul y blanco en mi coraz?n
TTITLE9=Taky Ongoy II
TTITLE10=Madre de madres
TTITLE11=Estas alas nuevas
EXTD=
EXTT0=
EXTT1=
EXTT2=
EXTT3=
EXTT4=
EXTT5=
EXTT6=
EXTT7=
EXTT8=
EXTT9=
EXTT10=
EXTT11=
PLAYORDER=
